<?xml version="1.0" encoding="UTF-8" standalone="no"?>
<!-- Created with Inkscape (http://www.inkscape.org/) -->

<svg
   width="41.739929mm"
   height="31.116138mm"
   viewBox="0 0 41.739929 31.116139"
   version="1.1"
   id="svg1"
   xml:space="preserve"
   inkscape:version="1.3 (0e150ed6c4, 2023-07-21)"
   sodipodi:docname="CREED_LOGO_1.svg"
   xmlns:inkscape="http://www.inkscape.org/namespaces/inkscape"
   xmlns:sodipodi="http://sodipodi.sourceforge.net/DTD/sodipodi-0.dtd"
   xmlns="http://www.w3.org/2000/svg"
   xmlns:svg="http://www.w3.org/2000/svg"><sodipodi:namedview
     id="namedview1"
     pagecolor="#ffffff"
     bordercolor="#000000"
     borderopacity="0.25"
     inkscape:showpageshadow="2"
     inkscape:pageopacity="0.0"
     inkscape:pagecheckerboard="0"
     inkscape:deskcolor="#d1d1d1"
     inkscape:document-units="mm"
     inkscape:zoom="1.28"
     inkscape:cx="90.234375"
     inkscape:cy="101.5625"
     inkscape:window-width="1600"
     inkscape:window-height="930"
     inkscape:window-x="-6"
     inkscape:window-y="-6"
     inkscape:window-maximized="1"
     inkscape:current-layer="layer1"
     showgrid="false"
     showguides="false" /><defs
     id="defs1" /><g
     inkscape:label="Layer 1"
     inkscape:groupmode="layer"
     id="layer1"
     transform="translate(-1361.1689,-163.51976)"><path
       id="path77"
       style="fill:#1a72ce;fill-opacity:1;stroke:none;stroke-width:0.460355;stroke-linecap:square;stroke-linejoin:round;stroke-miterlimit:4.1;stroke-dasharray:none"
       d="m 1376.727,163.52001 c -8.5926,-8e-5 -15.5582,6.96559 -15.5581,15.55815 1e-4,8.5924 6.9657,15.55782 15.5581,15.55774 2.3962,-0.0183 4.7558,-0.58996 6.8948,-1.67027 -0.023,-0.62643 -0.046,-1.23426 -0.073,-1.94731 -1.7,0.79583 -3.5536,1.20979 -5.4307,1.2128 -7.1012,-7e-5 -12.3786,-5.77299 -12.8576,-12.85799 -0.4912,-7.26477 5.6923,-12.87892 12.8576,-12.85757 2.1766,0.01 4.3151,0.57151 6.2152,1.63319 -0.1346,-0.97104 0,-1.83152 0.732,-2.19938 -2.4925,-1.5849 -5.3847,-2.42753 -8.3384,-2.42936 z"
       sodipodi:nodetypes="csccccsccccc"
       inkscape:export-filename="CREED_LOGO.png"
       inkscape:export-xdpi="200"
       inkscape:export-ydpi="200" /><path
       id="path78"
       style="fill:#4bdf52;fill-opacity:1;stroke:none;stroke-width:0.460455;stroke-linecap:square;stroke-linejoin:round;stroke-miterlimit:4.1;stroke-dasharray:none"
       d="m 1376.6813,163.51976 a 15.557948,15.557948 0 0 0 -14.7304,10.64535 11.382256,11.382256 0 0 0 3.5719,2.67425 c 1.0627,-1.45634 2.555,-2.82269 4.7552,-4.06952 -1.1724,-0.44377 -2.3447,-0.31094 -3.5171,0.35812 3.4464,-4.83156 8.252,-5.76943 11.4412,-5.78983 0.736,-0.005 1.3859,0.0397 1.9131,0.0961 -2.4332,0.18904 -6.6994,0.81416 -8.4956,3.63647 0.9593,-0.0144 2.3004,0.38879 3.3088,1.04335 -3.5991,2.15531 -4.1642,2.62614 -6.9179,5.56297 l -0.018,0.0222 a 11.382256,11.382256 0 0 0 2.449,0.28267 11.382256,11.382256 0 0 0 11.3822,-11.38225 11.382256,11.382256 0 0 0 -0.232,-2.27945 15.557948,15.557948 0 0 0 -4.9108,-0.80047 z" /><path
       id="path80"
       style="fill:#4bdf52;fill-opacity:1;stroke:none;stroke-width:0.460455;stroke-linecap:square;stroke-linejoin:round;stroke-miterlimit:4.1;stroke-dasharray:none"
       d="m 1381.5889,164.32789 c 0.1493,0.73743 0.2251,1.48784 0.2263,2.24021 0,2.16654 -0.6054,4.19141 -1.6561,5.91529 l 0.025,0.008 c 1.3565,-1.95289 3.6127,-3.23383 6.1706,-3.23386 0.9651,3.4e-4 1.9211,0.18663 2.8156,0.5487 -1.9053,-2.56043 -4.5519,-4.47297 -7.581,-5.47825 z"
       sodipodi:nodetypes="ccccccc" /><path
       id="path82"
       style="fill:#2eb400;fill-opacity:1;stroke:none;stroke-width:0.460455;stroke-linecap:square;stroke-linejoin:round;stroke-miterlimit:4.1;stroke-dasharray:none"
       d="m 1386.3274,169.23689 a 7.5119057,7.5119057 0 0 0 -4.4009,1.44654 11.850055,11.850055 0 0 1 1.2124,-0.0867 11.850055,11.850055 0 0 1 8.1651,3.27345 15.557948,15.557948 0 0 0 -2.1531,-4.07338 7.5119057,7.5119057 0 0 0 -2.8235,-0.55995 z" /><path
       id="path85"
       style="fill:#1a72ce;fill-opacity:1;stroke:none;stroke-width:0.14038;stroke-linecap:square;stroke-linejoin:round;stroke-miterlimit:4.1;stroke-dasharray:none"
       d="m 1389.123,186.00252 a 12.857734,12.857734 0 0 1 -11.0048,6.2286 12.857734,12.857734 0 0 1 -7.8672,-2.72016 10.516788,10.516788 0 0 0 8.6638,4.58582 10.516788,10.516788 0 0 0 4.3329,-0.93699 15.557948,15.557948 0 0 0 0.2266,-0.11749 10.516788,10.516788 0 0 0 5.6487,-7.03978 z" /><path
       id="path86"
       style="fill:#4bdf52;fill-opacity:1;stroke:none;stroke-width:0.460355;stroke-linecap:square;stroke-linejoin:round;stroke-miterlimit:4.1;stroke-dasharray:none"
       d="m 1362.2384,173.45642 c -0.7041,1.79957 -1.0668,3.71457 -1.0695,5.64698 0,2.06971 0.4165,4.11827 1.2199,6.0257 0.037,-3.32311 1.9199,-6.92559 3.8869,-9.23948 0.1051,-0.34706 -0.4983,-0.01 -0.4706,-0.0884 -0.8927,-0.6387 -2.0826,-1.42352 -3.5667,-2.34478 z"
       sodipodi:nodetypes="cccccc" /><text
       xml:space="preserve"
       style="font-size:8.9982px;font-family:'Times New Roman';-inkscape-font-specification:'Times New Roman, ';text-align:center;letter-spacing:0px;text-anchor:middle;fill:#1a72ce;fill-opacity:1;stroke:none;stroke-width:0.136301;stroke-linecap:square;stroke-linejoin:round;stroke-miterlimit:4.1;stroke-dasharray:none"
       x="1718.2897"
       y="148.99248"
       id="text87"
       transform="scale(0.80882611,1.2363597)"><tspan
         sodipodi:role="line"
         id="tspan87"
         style="font-style:normal;font-variant:normal;font-weight:normal;font-stretch:normal;font-family:Montserrat;-inkscape-font-specification:Montserrat;fill:#1a72ce;fill-opacity:1;stroke:none;stroke-width:0.136301"
         x="1718.2897"
         y="148.99248">CREED</tspan></text></g></svg>
