<?xml version="1.0" encoding="UTF-8" standalone="no"?>
<!-- Created with Inkscape (http://www.inkscape.org/) -->

<svg
   width="172.76205mm"
   height="172.76155mm"
   viewBox="0 0 172.76205 172.76155"
   version="1.1"
   id="svg1"
   xml:space="preserve"
   inkscape:version="1.3 (0e150ed6c4, 2023-07-21)"
   sodipodi:docname="drawing.svg"
   xmlns:inkscape="http://www.inkscape.org/namespaces/inkscape"
   xmlns:sodipodi="http://sodipodi.sourceforge.net/DTD/sodipodi-0.dtd"
   xmlns:xlink="http://www.w3.org/1999/xlink"
   xmlns="http://www.w3.org/2000/svg"
   xmlns:svg="http://www.w3.org/2000/svg"><sodipodi:namedview
     id="namedview1"
     pagecolor="#ffffff"
     bordercolor="#000000"
     borderopacity="0.25"
     inkscape:showpageshadow="2"
     inkscape:pageopacity="0.0"
     inkscape:pagecheckerboard="0"
     inkscape:deskcolor="#d1d1d1"
     inkscape:document-units="mm"
     inkscape:zoom="1.2650112"
     inkscape:cx="3002.3449"
     inkscape:cy="1193.6653"
     inkscape:window-width="1600"
     inkscape:window-height="930"
     inkscape:window-x="-6"
     inkscape:window-y="-6"
     inkscape:window-maximized="1"
     inkscape:current-layer="layer1"
     showgrid="false"
     showguides="false" /><defs
     id="defs1"><linearGradient
       id="linearGradient83"
       inkscape:collect="always"><stop
         style="stop-color:#747474;stop-opacity:1;"
         offset="0.68421054"
         id="stop82" /><stop
         style="stop-color:#575757;stop-opacity:1;"
         offset="1"
         id="stop83" /></linearGradient><linearGradient
       id="linearGradient74"
       inkscape:collect="always"><stop
         style="stop-color:#74d917;stop-opacity:1;"
         offset="0.68421054"
         id="stop74" /><stop
         style="stop-color:#1fac3a;stop-opacity:1;"
         offset="1"
         id="stop75" /></linearGradient><radialGradient
       inkscape:collect="always"
       xlink:href="#linearGradient83"
       id="radialGradient84"
       gradientUnits="userSpaceOnUse"
       gradientTransform="matrix(1.2668713,0,0,1.2668713,544.92143,-120.70609)"
       cx="714.75928"
       cy="418.26883"
       fx="714.75928"
       fy="418.26883"
       r="68.184471" /><radialGradient
       inkscape:collect="always"
       xlink:href="#linearGradient74"
       id="radialGradient85"
       gradientUnits="userSpaceOnUse"
       gradientTransform="matrix(1.2668713,0,0,1.2668713,544.93652,-121.02)"
       cx="714.75928"
       cy="418.26883"
       fx="714.75928"
       fy="418.26883"
       r="68.184471" /></defs><g
     inkscape:label="Layer 1"
     inkscape:groupmode="layer"
     id="layer1"
     transform="translate(-1364.0635,-322.49193)"><g
       id="g85"><path
         id="path83"
         style="fill:url(#radialGradient85);stroke:none;stroke-width:0.660298;stroke-linecap:square;stroke-miterlimit:4.1"
         d="m 1450.4443,322.49194 a 86.380998,86.380998 0 0 0 -0.01,5.2e-4 86.380998,86.380998 0 0 1 0.1737,0.0114 86.380998,86.380998 0 0 0 -0.1664,-0.0119 z m 11.7553,0.84078 a 86.380998,86.380998 0 0 1 4.176,0.82992 86.380998,86.380998 0 0 0 -4.176,-0.82992 z m -23.5567,0.003 a 86.380998,86.380998 0 0 0 -3.8168,0.75861 86.380998,86.380998 0 0 1 3.8168,-0.75861 z m 35.0935,2.42776 a 86.380998,86.380998 0 0 1 4.7925,1.62522 86.380998,86.380998 0 0 0 -4.7925,-1.62522 z m -46.668,0.0186 a 86.380998,86.380998 0 0 0 -4.4028,1.49242 86.380998,86.380998 0 0 1 4.4028,-1.49242 z m 57.7547,3.95428 a 86.380998,86.380998 0 0 1 4.8555,2.39055 86.380998,86.380998 0 0 0 -4.8555,-2.39055 z m -68.8868,0.0486 a 86.380998,86.380998 0 0 0 -4.4374,2.18488 86.380998,86.380998 0 0 1 4.4374,-2.18488 z m 79.3363,5.39657 a 86.380998,86.380998 0 0 1 4.6498,3.10162 86.380998,86.380998 0 0 0 -4.6498,-3.10162 z m -89.8261,0.093 a 86.380998,86.380998 0 0 0 -4.2292,2.82101 86.380998,86.380998 0 0 1 4.2292,-2.82101 z m 44.9828,5.67562 a 67.923167,67.923167 0 0 0 -10.142,0.79892 67.923167,67.923167 0 0 1 10.1466,-0.79841 67.923167,67.923167 0 0 0 0,-5.1e-4 z m 0.2403,0.0171 a 67.923167,67.923167 0 0 1 9.8847,0.77773 67.923167,67.923167 0 0 0 -9.8847,-0.77773 z m 54.2122,1.02836 a 86.380998,86.380998 0 0 1 4.2891,3.75378 86.380998,86.380998 0 0 0 -4.2891,-3.75378 z m -109.0848,0.15762 a 86.380998,86.380998 0 0 0 -3.8675,3.3848 86.380998,86.380998 0 0 1 3.8675,-3.3848 z m 21.3392,7.71425 a 67.923167,67.923167 0 0 0 -5.0555,3.09801 67.923167,67.923167 0 0 1 5.0555,-3.09801 z m -29.9697,0.43357 a 86.380998,86.380998 0 0 0 -3.3941,3.86126 86.380998,86.380998 0 0 1 3.3941,-3.86126 z m 21.4028,5.28753 a 67.923167,67.923167 0 0 0 -4.4411,3.79305 67.923167,67.923167 0 0 1 4.4411,-3.79305 z m -28.8577,3.99821 a 86.380998,86.380998 0 0 0 -2.8241,4.21318 86.380998,86.380998 0 0 1 2.8241,-4.21318 z m 147.2882,9.70328 a 86.380998,86.380998 0 0 1 2.5937,5.23792 86.380998,86.380998 0 0 0 -2.5937,-5.23792 z m -153.4366,0.59738 a 86.380998,86.380998 0 0 0 -2.174,4.39043 86.380998,86.380998 0 0 1 2.174,-4.39043 z m 15.8621,9.35395 a 67.923167,67.923167 0 0 0 -2.3797,5.74487 67.923167,67.923167 0 0 1 2.3797,-5.74487 z m -20.5797,1.85415 a 86.380998,86.380998 0 0 0 -1.4732,4.31498 86.380998,86.380998 0 0 1 1.4732,-4.31498 z m 16.8021,7.61194 a 67.923167,67.923167 0 0 0 -1.635,6.81095 67.923167,67.923167 0 0 1 1.635,-6.81095 z m -20.0215,4.72839 a 86.380998,86.380998 0 0 0 -0.7121,3.54191 86.380998,86.380998 0 0 1 0.7121,-3.54191 z m 17.7012,5.19245 a 67.923167,67.923167 0 0 0 -0.8046,10.03556 h -18.4443 a 86.380998,86.380998 0 0 0 -0.015,0.20878 86.380998,86.380998 0 0 0 86.3808,86.38077 86.380998,86.380998 0 0 0 86.3813,-86.38077 86.380998,86.380998 0 0 0 -0.3204,-4.48345 86.380998,86.380998 0 0 1 0.2899,4.27467 h -18.4439 a 67.923167,67.923167 0 0 1 0.017,0.20878 67.923167,67.923167 0 0 1 -67.9235,67.92298 67.923167,67.923167 0 0 1 -67.923,-67.92298 67.923167,67.923167 0 0 1 0.8061,-10.24434 z m 134.2513,0.21549 a 67.923167,67.923167 0 0 1 0.4806,6.10816 67.923167,67.923167 0 0 0 -0.4806,-6.10816 z" /><path
         id="path84"
         style="fill:url(#radialGradient84);stroke:none;stroke-width:0.660298;stroke-linecap:square;stroke-miterlimit:4.1"
         d="m 1450.4294,322.80558 a 86.380998,86.380998 0 0 0 -86.3658,86.172 h 18.4593 a 67.923167,67.923167 0 0 1 67.9065,-67.71369 67.923167,67.923167 0 0 1 67.9064,67.71369 h 18.4594 a 86.380998,86.380998 0 0 0 -86.3658,-86.172 z" /></g></g></svg>
